<svg width="46" height="45" viewBox="0 0 46 45" fill="none" xmlns="http://www.w3.org/2000/svg">
<rect x="0.651123" width="44.6512" height="44.6512" rx="12" fill="#FFEDEF"/>
<path fill-rule="evenodd" clip-rule="evenodd" d="M22.924 7H27.2876V8.42857H25.8331V9.18243C27.0316 9.31327 28.2003 9.76861 29.1916 10.5484L30.0461 9.70922L31.0746 10.7194L30.2202 11.5586C31.6752 13.3428 32.0207 15.7121 31.2567 17.7741H32.0099C33.1103 17.7741 33.9345 18.7827 33.7152 19.8611L31.9541 28.5233C31.7069 29.7396 30.6373 30.6136 29.3961 30.6136H17.8676C16.8803 30.669 16.0969 31.4871 16.0969 32.4882C16.0969 33.5251 16.9375 34.3657 17.9745 34.3657H30.1088V36.106H27.3476C28.1984 36.3645 28.8175 37.1551 28.8175 38.0903C28.8175 39.2355 27.8892 40.1639 26.744 40.1639C25.5988 40.1639 24.6704 39.2355 24.6704 38.0903C24.6704 37.1551 25.2896 36.3645 26.1404 36.106H19.6974C20.5481 36.3645 21.1673 37.1551 21.1673 38.0903C21.1673 39.2355 20.239 40.1639 19.0938 40.1639C17.9486 40.1639 17.0202 39.2355 17.0202 38.0903C17.0202 37.1551 17.6394 36.3645 18.4902 36.106H17.9745C15.9764 36.106 14.3566 34.4862 14.3566 32.4882C14.3566 31.6258 14.6583 30.8339 15.162 30.2123C14.575 29.8424 14.141 29.2427 13.9948 28.5233L13.3181 25.1951L13.3046 25.1978L11.7184 17.3398C11.6364 16.9338 11.2796 16.6419 10.8654 16.6419H7.85278V14.9016H10.8654C12.108 14.9016 13.1783 15.7775 13.4242 16.9954L13.5814 17.7741H17.1058V17.7143H20.7422V17.7741H29.6776C30.6102 15.9074 30.2862 13.5882 28.7056 12.0359C26.7175 10.0833 23.4941 10.0833 21.5059 12.0359L20.4774 11.0257C21.5702 9.95244 22.9534 9.338 24.3785 9.18242V8.42857H22.924V7ZM28.7422 16.2857H25.1058C24.7041 16.2857 24.3785 15.9659 24.3785 15.5714V12H25.8331V14.8571H28.7422V16.2857ZM17.1058 12H20.7422V13.4286H17.1058V12ZM19.2876 14.8571H15.6512V16.2857H19.2876V14.8571Z" fill="#DF364B"/>
<circle opacity="0.5" cx="31.1511" cy="31.5" r="5.5" fill="#B72638"/>
</svg>
